<mxfile host="app.diagrams.net" modified="2024-07-22T02:50:13.582Z" agent="Mozilla/5.0 (Macintosh; Intel Mac OS X 10_15_7) AppleWebKit/537.36 (KHTML, like Gecko) Chrome/126.0.0.0 Safari/537.36" version="24.4.13" etag="sNhKA7r5jXccM-R08xDb" type="github">
  <diagram name="第 1 页" id="i3LmG-yiSjgF4kJ3n7XH">
    <mxGraphModel>
      <root>
        <mxCell id="0" />
        <mxCell id="1" parent="0" />
      </root>
    </mxGraphModel>
  </diagram>
</mxfile>
